<?xml version="1.0" standalone="no"?>
<!DOCTYPE svg PUBLIC "-//W3C//DTD SVG 20010904//EN"
 "http://www.w3.org/TR/2001/REC-SVG-20010904/DTD/svg10.dtd">
<svg version="1.0" xmlns="http://www.w3.org/2000/svg"
 width="1662.000000pt" height="1662.000000pt" viewBox="0 0 1662.000000 1662.000000"
 preserveAspectRatio="xMidYMid meet">
<metadata>
Created by potrace 1.14, written by Peter Selinger 2001-2017
</metadata>
<g transform="translate(0.000000,1662.000000) scale(0.100000,-0.100000)"
fill="#000000" stroke="none">
<path d="M8198 14976 c-1 -2 -32 -6 -68 -9 -36 -3 -85 -10 -110 -16 -25 -5
-56 -12 -70 -14 -51 -10 -188 -60 -275 -102 -326 -157 -562 -412 -728 -785 -9
-19 -52 -120 -95 -225 -44 -104 -123 -293 -177 -420 -54 -126 -121 -287 -150
-357 -29 -69 -60 -141 -68 -160 -8 -18 -50 -116 -92 -218 -43 -102 -88 -208
-101 -237 -13 -28 -24 -55 -24 -58 0 -3 -11 -30 -24 -58 -13 -29 -45 -104 -71
-167 -26 -63 -55 -133 -65 -155 -10 -22 -30 -69 -45 -105 -15 -36 -34 -81 -42
-100 -26 -60 -32 -74 -46 -110 -14 -32 -307 -727 -522 -1235 -51 -121 -123
-292 -160 -380 -64 -156 -76 -182 -108 -255 -9 -19 -28 -64 -42 -100 -14 -36
-37 -89 -51 -118 -13 -29 -24 -56 -24 -61 0 -4 -6 -21 -14 -37 -8 -16 -47
-105 -86 -199 -39 -93 -77 -183 -85 -200 -7 -16 -43 -102 -80 -190 -37 -88
-73 -173 -80 -190 -14 -31 -177 -419 -247 -585 -22 -52 -45 -108 -53 -125 -7
-16 -38 -91 -69 -165 -32 -74 -63 -148 -70 -165 -8 -16 -37 -86 -66 -155 -90
-217 -241 -574 -257 -608 -8 -19 -39 -91 -68 -160 -29 -70 -138 -329 -243
-577 -104 -247 -231 -549 -282 -670 -50 -121 -98 -233 -105 -250 -7 -16 -18
-41 -23 -55 -6 -14 -22 -50 -35 -80 -14 -31 -41 -96 -61 -145 -21 -50 -43
-103 -51 -120 -14 -33 -255 -602 -340 -807 -29 -69 -61 -144 -70 -165 -9 -21
-20 -47 -25 -58 -13 -34 -32 -79 -41 -97 -30 -60 -93 -235 -114 -317 -55 -219
-65 -500 -25 -686 5 -22 11 -53 14 -70 17 -95 98 -303 160 -414 216 -382 569
-640 996 -728 90 -18 348 -25 446 -11 472 67 879 367 1103 815 27 54 140 314
251 578 259 614 341 809 456 1080 l93 220 2317 0 2317 0 67 -160 c85 -205 188
-449 210 -500 28 -64 57 -133 260 -615 237 -564 225 -536 312 -700 35 -68 156
-224 230 -299 228 -228 499 -368 814 -418 63 -10 323 -10 394 0 46 6 95 17
190 41 120 31 327 134 448 223 96 71 273 246 317 315 6 8 28 42 49 74 85 129
156 290 199 455 23 88 30 120 43 209 15 108 11 303 -10 450 -14 100 -68 286
-106 365 -5 11 -102 241 -216 510 -113 270 -241 573 -284 675 -43 102 -104
246 -135 320 -31 74 -142 335 -245 580 -103 245 -236 560 -294 700 -59 140
-113 269 -121 285 -8 17 -46 104 -84 195 -70 169 -332 791 -356 845 -7 17 -19
46 -28 65 -14 33 -103 244 -244 580 -35 85 -71 169 -78 185 -43 100 -72 168
-135 320 -40 94 -78 184 -85 200 -12 27 -168 396 -356 845 -38 91 -76 179 -83
195 -8 17 -37 86 -66 155 -78 187 -80 193 -96 223 -8 16 -14 33 -14 38 0 4
-11 32 -24 61 -25 53 -104 241 -336 793 -66 160 -129 308 -139 330 -10 22 -71
166 -135 320 -65 154 -126 298 -136 320 -10 22 -35 81 -55 130 -21 50 -44 106
-52 125 -9 19 -21 49 -28 65 -24 54 -286 676 -365 865 -258 615 -287 676 -398
830 -61 83 -208 233 -292 297 -85 64 -213 138 -298 173 -42 17 -86 35 -97 40
-29 13 -169 48 -244 61 -60 10 -295 21 -303 15z m376 -5977 c157 -373 321
-762 364 -865 44 -104 144 -340 222 -524 78 -184 144 -341 147 -347 4 -10
-204 -13 -1022 -13 -818 0 -1026 3 -1022 13 27 65 189 447 197 462 12 25 482
1140 565 1340 34 83 71 170 82 195 11 25 56 129 99 232 43 103 79 186 80 185
1 -1 131 -306 288 -678z"/>
</g>
</svg>
